<svg xmlns="http://www.w3.org/2000/svg" width="165.762" height="40.602" viewBox="0 0 165.762 40.602">
  <g id="Group_242" data-name="Group 242" transform="translate(-276 -95)">
    <path id="Path_18770" data-name="Path 18770" d="M71.953,19.751H81.5a3.928,3.928,0,0,1,1.592.328,4.048,4.048,0,0,1,1.3.889,4.439,4.439,0,0,1,.874,1.3,3.819,3.819,0,0,1,.328,1.576,3.745,3.745,0,0,1-.328,1.545,4.232,4.232,0,0,1-.874,1.28,4.18,4.18,0,0,1-1.3.874,3.927,3.927,0,0,1-1.592.328h-9.55v6.46a6.488,6.488,0,0,0,.531,2.621,6.7,6.7,0,0,0,1.451,2.122A7.022,7.022,0,0,0,76.073,40.5a6.488,6.488,0,0,0,2.622.531A7.465,7.465,0,0,0,81,40.692a5.287,5.287,0,0,0,1.9-1.092,7.475,7.475,0,0,1,.811-.655,4.129,4.129,0,0,1,.905-.468,3.942,3.942,0,0,1,1.935-.2,3.6,3.6,0,0,1,1.9.952,3.734,3.734,0,0,1,.952,1.436,4.021,4.021,0,0,1,.234,1.685,4.95,4.95,0,0,1-.437,1.7,4.613,4.613,0,0,1-1.03,1.451,12.526,12.526,0,0,1-4.291,2.731,15.007,15.007,0,0,1-10.986-.25,14.912,14.912,0,0,1-7.9-7.911,14.507,14.507,0,0,1-1.17-5.8V15.476a3.927,3.927,0,0,1,.328-1.592,4.236,4.236,0,0,1,.889-1.311,4.291,4.291,0,0,1,1.3-.889,3.819,3.819,0,0,1,1.576-.328,3.983,3.983,0,0,1,1.576.312,3.889,3.889,0,0,1,1.28.874,4.156,4.156,0,0,1,1.17,2.934ZM90.3,34.263a14.233,14.233,0,0,1,1.186-5.789A15.349,15.349,0,0,1,94.7,23.746a15.127,15.127,0,0,1,4.728-3.2,14.726,14.726,0,0,1,11.469-.016,15.172,15.172,0,0,1,4.7,3.136,14.96,14.96,0,0,1,3.2,4.666,14.739,14.739,0,0,1,1.248,5.711v10.58a4.038,4.038,0,0,1-.328,1.607,4.186,4.186,0,0,1-.889,1.326,4.235,4.235,0,0,1-1.311.889,4,4,0,0,1-1.623.328,3.831,3.831,0,0,1-2.029-.531,3.793,3.793,0,0,1-1.373-1.436,14.536,14.536,0,0,1-3.464,1.716,11.876,11.876,0,0,1-3.839.624,14.32,14.32,0,0,1-5.758-1.17,15.127,15.127,0,0,1-4.728-3.2,15.3,15.3,0,0,1-3.215-4.744A14.266,14.266,0,0,1,90.3,34.263Zm8.114,0a6.437,6.437,0,0,0,.546,2.637,7.055,7.055,0,0,0,1.467,2.153,6.833,6.833,0,0,0,2.153,1.451,6.522,6.522,0,0,0,2.606.531,6.672,6.672,0,0,0,4.775-1.982A6.969,6.969,0,0,0,111.4,36.9a6.819,6.819,0,0,0,0-5.274,6.969,6.969,0,0,0-1.436-2.153,6.672,6.672,0,0,0-4.775-1.982,6.522,6.522,0,0,0-2.606.531,6.833,6.833,0,0,0-2.153,1.451,7.056,7.056,0,0,0-1.467,2.153A6.437,6.437,0,0,0,98.418,34.263Zm36.8,6.4a3.744,3.744,0,0,1,1.607.343,4.123,4.123,0,0,1,1.264.905,4.068,4.068,0,0,1,.827,1.311,4.285,4.285,0,0,1,.3,1.592,4.165,4.165,0,0,1-.3,1.576,3.693,3.693,0,0,1-2.091,2.091,4.25,4.25,0,0,1-1.607.3h-.156a11.45,11.45,0,0,1-4.01-.765,10.3,10.3,0,0,1-3.293-2.029,9.4,9.4,0,0,1-2.216-3.105,9.577,9.577,0,0,1-.811-3.963V12.6a4.158,4.158,0,0,1,1.155-2.887,3.924,3.924,0,0,1,1.233-.858,3.684,3.684,0,0,1,1.514-.312,4.213,4.213,0,0,1,1.607.312,4.293,4.293,0,0,1,1.342.858,4.134,4.134,0,0,1,.921,1.3,3.775,3.775,0,0,1,.343,1.592V38.913a1.436,1.436,0,0,0,.687,1.342A3.261,3.261,0,0,0,135.214,40.661ZM157.871,33.3,166.36,42a3.639,3.639,0,0,1,.843,1.311,4.087,4.087,0,0,1,.265,1.529,4.363,4.363,0,0,1-.312,1.529,3.738,3.738,0,0,1-.921,1.342,3.639,3.639,0,0,1-1.311.843,4.043,4.043,0,0,1-1.514.265,4.327,4.327,0,0,1-1.514-.312,3.461,3.461,0,0,1-1.311-.921l-8.333-8.957L150.163,40.6v4.213a3.862,3.862,0,0,1-1.17,2.809,4.2,4.2,0,0,1-1.264.843,3.794,3.794,0,0,1-1.529.312,4.1,4.1,0,0,1-1.592-.312,4.3,4.3,0,0,1-1.311-.843,3.963,3.963,0,0,1-.889-1.248,3.712,3.712,0,0,1-.328-1.56v-32.3a3.712,3.712,0,0,1,.328-1.56A3.963,3.963,0,0,1,143.3,9.7a4.3,4.3,0,0,1,1.311-.843,4.1,4.1,0,0,1,1.592-.312,3.947,3.947,0,0,1,3.683,2.4,3.87,3.87,0,0,1,.312,1.56V29.956l9.175-9.082a3.624,3.624,0,0,1,1.311-.858,3.744,3.744,0,0,1,2.918.125,4.55,4.55,0,0,1,1.3.921,3.741,3.741,0,0,1,.874,1.342,4.281,4.281,0,0,1,.281,1.514,3.847,3.847,0,0,1-.3,1.482,3.693,3.693,0,0,1-.889,1.28Z" transform="translate(212.161 86.452)" fill="#00ddb3"/>
    <path id="Path_18771" data-name="Path 18771" d="M315.184,37.883a6.282,6.282,0,0,0,2.512,2.387,7.351,7.351,0,0,0,3.417.8,9.745,9.745,0,0,0,2.138-.2,4.573,4.573,0,0,0,1.576-.671,5.2,5.2,0,0,1,2.138-.936,3.726,3.726,0,0,1,1.919.187,3.923,3.923,0,0,1,1.139.7,4.153,4.153,0,0,1,.858,1.045,4.527,4.527,0,0,1,.5,1.3,3.993,3.993,0,0,1,.062,1.4,3.847,3.847,0,0,1-.468,1.373,4.331,4.331,0,0,1-1.061,1.233,13.894,13.894,0,0,1-1.389.952,10.1,10.1,0,0,1-1.841.858,14.37,14.37,0,0,1-2.419.609,18.921,18.921,0,0,1-3.152.234,14.508,14.508,0,0,1-5.8-1.17,15.184,15.184,0,0,1-7.99-7.927,14.761,14.761,0,0,1,0-11.594,14.977,14.977,0,0,1,3.23-4.728,15.4,15.4,0,0,1,4.759-3.183,14.508,14.508,0,0,1,5.8-1.17,14.693,14.693,0,0,1,5.742,1.139,14.909,14.909,0,0,1,4.744,3.136,15.294,15.294,0,0,1,3.23,4.666,14.52,14.52,0,0,1,1.264,5.727,3.671,3.671,0,0,1-1.108,2.778,4,4,0,0,1-2.887,1.061Zm12.577-6.741a5.594,5.594,0,0,0-2.544-2.762,8.4,8.4,0,0,0-3.948-.889,7.6,7.6,0,0,0-3.886.952,5.935,5.935,0,0,0-2.45,2.7Zm39.833,3.09v.25a14.622,14.622,0,0,1-1.248,5.7,15.069,15.069,0,0,1-3.215,4.666,15.227,15.227,0,0,1-4.713,3.152,14.8,14.8,0,0,1-11.5-.016,14.94,14.94,0,0,1-4.713-3.2,15.211,15.211,0,0,1-3.183-4.744,14.864,14.864,0,0,1,0-11.563,15.261,15.261,0,0,1,3.183-4.728,14.94,14.94,0,0,1,4.713-3.2,14.4,14.4,0,0,1,5.789-1.17,14,14,0,0,1,3.527.437,16.494,16.494,0,0,1,3.246,1.217v-8.27a4.618,4.618,0,0,1,.3-1.654,3.872,3.872,0,0,1,.843-1.342,4.1,4.1,0,0,1,1.28-.889,4.067,4.067,0,0,1,3.2,0,4.237,4.237,0,0,1,1.311.889,3.944,3.944,0,0,1,.874,1.342,4.41,4.41,0,0,1,.312,1.654Zm-8.114.031a6.436,6.436,0,0,0-.546-2.637,7.054,7.054,0,0,0-1.467-2.153,6.834,6.834,0,0,0-2.153-1.451,6.523,6.523,0,0,0-2.606-.531,6.672,6.672,0,0,0-4.775,1.982,6.969,6.969,0,0,0-1.436,2.153,6.819,6.819,0,0,0,0,5.274,6.969,6.969,0,0,0,1.436,2.153,6.672,6.672,0,0,0,4.775,1.982,6.523,6.523,0,0,0,2.606-.531,6.834,6.834,0,0,0,2.153-1.451,7.054,7.054,0,0,0,1.467-2.153A6.436,6.436,0,0,0,359.48,34.263Z" transform="translate(74.167 86.452)" fill="#b691ff"/>
  </g>
</svg>
